HIERARCHY
ROOT Hips
{
	OFFSET -0.179506 -22.333345 2.821913
	CHANNELS 6 Xposition Yposition Zposition Zrotation Yrotation Xrotation 
	JOINT LeftUpLeg
	{
		OFFSET 6.951974 -9.140623 -0.681533
		CHANNELS 3 Zrotation Yrotation Xrotation
		JOINT LeftLeg
		{
			OFFSET 3.427654 -37.519855 -0.449580
			CHANNELS 3 Zrotation Yrotation Xrotation
			JOINT LeftFoot
			{
				OFFSET -1.359570 -39.796059 -4.369333
				CHANNELS 3 Zrotation Yrotation Xrotation
				JOINT LeftToe
				{
					OFFSET 2.635814 -5.579078 11.928840
					CHANNELS 3 Zrotation Yrotation Xrotation
					End Site
					{
						OFFSET 0.000000 0.000000 0.000000
					}
				}
			}
		}
	}
	JOINT RightUpLeg
	{
		OFFSET -6.767048 -9.052170 -0.431982
		CHANNELS 3 Zrotation Yrotation Xrotation
		JOINT RightLeg
		{
			OFFSET -3.829005 -38.256897 -0.885003
			CHANNELS 3 Zrotation Yrotation Xrotation
			JOINT RightFoot
			{
				OFFSET 1.577377 -39.841461 -4.231180
				CHANNELS 3 Zrotation Yrotation Xrotation
				JOINT RightToe
				{
					OFFSET -2.537174 -4.814398 12.334795
					CHANNELS 3 Zrotation Yrotation Xrotation
					End Site
					{
						OFFSET 0.000000 0.000000 0.000000
					}
				}
			}
		}
	}
	JOINT Spine
	{
		OFFSET -0.253288 10.896323 -2.669631
		CHANNELS 3 Zrotation Yrotation Xrotation
		JOINT Spine1
		{
			OFFSET 0.548704 13.518043 0.109247
			CHANNELS 3 Zrotation Yrotation Xrotation
			JOINT Spine2
			{
				OFFSET 0.145701 5.292222 2.542457
				CHANNELS 3 Zrotation Yrotation Xrotation
				JOINT Neck
				{
					OFFSET -0.277840 21.387037 -4.285703
					CHANNELS 3 Zrotation Yrotation Xrotation
					JOINT Head
					{
						OFFSET 0.515184 6.496960 5.134897
						CHANNELS 3 Zrotation Yrotation Xrotation
						End Site
						{
							OFFSET 0.000000 0.000000 0.000000
						}
					}
				}
				JOINT LeftShoulder
				{
					OFFSET 7.884473 12.174932 -3.408961
					CHANNELS 3 Zrotation Yrotation Xrotation
					JOINT LeftArm
					{
						OFFSET 9.097692 3.046888 -0.886815
						CHANNELS 3 Zrotation Yrotation Xrotation
						JOINT LeftForeArm
						{
							OFFSET 25.961220 -1.277207 -2.745643
							CHANNELS 3 Zrotation Yrotation Xrotation
							JOINT LeftHand
							{
								OFFSET 24.923361 0.898606 -0.117091
								CHANNELS 3 Zrotation Yrotation Xrotation
								End Site
								{
									OFFSET 0.000000 0.000000 0.000000
								}
							}
						}
					}
				}
				JOINT RightShoulder
				{
					OFFSET -8.175920 11.883285 -3.861528
					CHANNELS 3 Zrotation Yrotation Xrotation
					JOINT RightArm
					{
						OFFSET -9.601238 3.255117 -0.914307
						CHANNELS 3 Zrotation Yrotation Xrotation
						JOINT RightForeArm
						{
							OFFSET -25.374195 -1.332924 -2.140099
							CHANNELS 3 Zrotation Yrotation Xrotation
							JOINT RightHand
							{
								OFFSET -25.529810 0.777228 -0.555919
								CHANNELS 3 Zrotation Yrotation Xrotation
								End Site
								{
									OFFSET 0.000000 0.000000 0.000000
								}
							}
						}
					}
				}
			}
		}
	}
}
MOTION
Frames: 13
Frame Time: 0.033333
-302.303650 -290.107819 87.215881 151.037449 1.029014 102.292253 -0.801037 -6.597357 -25.928467 -13.108542 6.443692 49.699996 9.616021 18.229807 -33.334963 nan nan nan -5.540198 -1.807493 -29.066524 2.161700 -13.673793 79.463259 -0.446323 -6.813611 -8.569487 nan nan nan -2.445861 1.910931 17.694213 2.187452 -1.588411 9.823349 -0.227005 -1.215315 -4.996309 0.591287 -2.853358 -8.083242 4.286582 -3.313832 -16.906603 -26.967006 1.648317 1.775452 -59.837143 5.218313 17.195242 24.905115 -62.195974 -15.411945 -1.149353 -25.013551 -10.443237 25.066234 3.225386 2.690226 54.072989 -12.358488 12.253509 -5.277602 58.073878 5.507874 -2.941589 21.416199 -20.366634 
-300.994415 -288.371582 87.001328 151.792313 0.956332 101.832415 -0.995952 -6.356200 -23.613780 -13.733634 4.847636 49.557662 9.203942 18.339871 -33.871379 nan nan nan -6.044820 -1.988239 -32.540684 2.026694 -14.212675 81.700703 -0.907729 -6.974127 -9.625750 nan nan nan -2.332380 1.096508 18.431321 2.244630 -1.493230 10.229548 -0.133096 -1.508304 -5.341113 0.164543 -2.746589 -8.356237 4.523602 -2.981742 -16.948594 -27.175479 0.603368 1.644668 -59.242425 3.680892 17.688337 25.666753 -63.355895 -16.814579 0.568853 -25.295815 -10.589391 25.096824 3.493820 2.712553 53.140738 -13.346462 12.703780 -2.695650 56.326470 7.164544 -3.416548 21.662270 -21.090333 
-299.648804 -286.770264 86.704956 152.974547 1.069217 101.975742 -0.755425 -6.147424 -22.028397 -14.149142 3.117834 49.428949 8.707995 18.351580 -34.601829 nan nan nan -6.188592 -1.938805 -36.900986 2.112258 -14.982670 83.962036 -1.109694 -6.806594 -10.169562 nan nan nan -2.229528 0.003508 18.710807 2.560767 -1.442513 9.762871 0.117063 -1.909081 -5.199994 -0.235643 -2.781002 -8.809800 4.716527 -2.699243 -16.028586 -27.045243 -0.283727 1.285248 -58.888883 2.636717 18.240863 26.066491 -64.956073 -17.822817 2.851925 -25.512541 -10.866502 24.923158 3.861511 2.918280 51.065174 -14.226395 13.904672 3.161088 54.642572 11.878338 -4.013726 22.355737 -21.931414 
-298.470856 -284.885284 86.565300 154.119586 0.782591 101.662790 -1.445798 -6.205895 -19.384592 -14.342699 0.921727 48.576485 8.167683 18.706535 -35.077967 nan nan nan -6.410682 -0.907006 -40.385345 3.019864 -14.285572 85.564873 -1.297945 -6.148274 -11.739618 nan nan nan -2.053164 -1.179808 19.011703 2.710318 -1.429809 10.041977 0.203100 -2.301325 -5.351099 -0.864651 -2.976762 -9.047941 4.917193 -2.517565 -15.692268 -27.207230 -1.516106 0.469812 -58.962025 1.749098 19.605352 26.640476 -65.355904 -17.849946 14.413713 -26.716532 -14.657496 24.489964 4.276778 2.690550 49.742482 -15.894899 16.065575 7.958933 53.335958 14.644263 -14.146464 23.324069 -28.158088 
-296.897369 -282.920258 86.460938 155.670305 0.687867 100.845965 -1.466454 -5.878218 -15.895657 -14.809236 -1.693154 47.651361 7.613310 18.835982 -35.829751 nan nan nan -6.487374 -0.361245 -42.637610 3.595320 -14.138893 86.343654 -1.367660 -5.837460 -12.530559 nan nan nan -2.455544 -2.318306 19.417978 3.320744 -1.482918 10.394025 0.506234 -2.627977 -5.200263 -1.238609 -3.230841 -9.548693 4.836401 -2.902281 -15.091686 -26.816393 -2.210127 0.124284 -59.375951 -0.039493 20.630314 25.525503 -65.743738 -17.560056 24.174935 -26.908300 -18.164063 24.360140 4.228076 2.639579 48.625312 -17.002075 17.440423 11.482940 51.887603 17.270717 -22.465771 23.123608 -31.326157 
-295.726929 -280.767365 86.341522 156.535448 0.941893 100.665345 -1.563215 -5.308747 -12.938731 -14.229059 -3.712935 46.494621 6.857677 18.540645 -36.629847 nan nan nan -7.560959 -0.577732 -45.291982 2.378759 -14.212905 86.627952 -1.718106 -7.550401 -13.813479 nan nan nan -1.675730 -3.618022 18.595601 3.402307 -1.394293 11.319235 0.429908 -3.065452 -5.412044 -1.713415 -2.928382 -9.442625 4.652555 -3.036864 -14.517044 -26.844027 -2.660675 -0.194407 -59.550653 -0.483251 21.102718 27.845587 -67.937925 -19.971574 25.765189 -29.524743 -18.694515 24.054201 4.533936 2.839602 47.262766 -17.980000 18.826106 14.336695 50.694977 19.824793 -23.410892 24.527861 -32.246634 
-294.153717 -278.526978 86.427910 156.898660 1.528656 99.994447 -0.986073 -4.524169 -8.934444 -13.598090 -5.557196 44.660250 6.379864 18.270348 -36.965011 nan nan nan -7.752819 -0.828032 -47.165894 1.718746 -14.999091 85.014847 -1.254677 -7.040341 -9.806764 nan nan nan -1.438747 -4.401973 18.355058 3.954006 -1.024884 12.051997 0.618349 -3.367392 -5.742766 -1.979425 -1.811873 -8.122773 4.313579 -2.908353 -15.059675 -26.428986 -2.859793 -0.423392 -59.297874 -0.979440 21.554055 29.736020 -69.735670 -22.200179 22.866826 -30.094953 -17.739728 23.706606 4.466608 3.243938 45.629397 -18.887032 20.093025 18.401057 49.693236 24.630698 -19.321675 25.577793 -30.796687 
-292.635071 -276.222687 86.585129 157.911147 1.945340 98.956744 -0.388457 -3.990413 -4.630004 -13.431433 -8.063803 42.735903 5.760814 17.537048 -36.226763 nan nan nan -8.683466 -1.087304 -48.508441 1.045954 -16.511970 83.955846 -0.930688 -6.899563 -7.806780 nan nan nan -1.073962 -5.609975 18.862286 4.402050 -0.803313 12.112286 0.731824 -3.737157 -5.540574 -2.024308 -0.934197 -7.696487 3.843072 -2.905283 -15.171696 -25.867053 -2.735590 -0.904764 -59.529830 -1.697581 22.187428 30.814658 -71.630454 -23.502660 24.024038 -30.996266 -18.724998 23.202282 4.168081 3.050232 44.235855 -19.670578 21.263925 22.425579 49.173385 27.731258 -18.677407 25.824280 -31.433397 
-291.281372 -274.062347 86.800644 158.631193 1.963431 98.950304 -0.117070 -3.728661 -1.822484 -13.248314 -10.040419 40.906454 5.537116 17.584561 -35.525136 nan nan nan -9.518503 -2.220959 -50.563539 0.393885 -17.429373 81.617032 -1.190347 -8.140309 -10.035895 nan nan nan -0.982491 -6.514876 18.860238 4.378186 -0.825010 10.778321 0.541198 -3.619222 -4.534954 -1.470795 -0.219177 -7.307901 4.311138 -2.644043 -15.368829 -25.040294 -1.601492 1.608257 -60.970273 -5.325378 21.198578 36.934748 -72.452034 -25.720446 16.348058 -31.540772 -15.947871 22.737268 -1.318094 2.684457 52.694603 -23.277941 11.704357 4.029962 54.853116 17.841846 -10.184617 24.188482 -20.476036 
-289.941711 -271.902344 87.185707 158.904753 1.837719 98.506517 -0.068452 -3.458310 1.333847 -12.413734 -11.157186 38.882304 4.935575 16.238468 -33.583856 nan nan nan -10.201226 -2.864825 -51.861350 0.046767 -18.335740 78.418011 -0.729572 -7.845375 -8.352335 nan nan nan -0.795950 -7.275785 18.978898 4.330690 -0.757910 10.697082 0.531673 -3.992138 -4.651206 -1.660574 0.662019 -6.988421 4.050000 -2.527013 -15.056703 -24.745935 -1.374869 1.234737 -61.323893 -5.716266 21.859272 42.519612 -73.945568 -31.781128 15.626496 -33.194894 -16.105001 22.579792 -2.066754 2.552965 51.736373 -24.706080 12.111632 4.949138 55.637172 18.535863 -7.357757 25.820935 -19.681145 
-288.161560 -269.530365 87.559135 158.882963 2.288342 98.026049 1.025043 -2.603153 4.877346 -11.972962 -12.847285 36.548626 3.883995 14.937963 -31.194206 nan nan nan -10.062695 -3.315713 -51.901547 -0.009556 -19.667148 74.746234 -0.409212 -7.537627 -8.663472 nan nan nan -0.730656 -7.920654 18.182957 4.601462 -0.695643 11.513927 0.747109 -4.112693 -4.849254 -1.960220 1.551144 -5.953735 3.740558 -2.277199 -15.447300 -24.912600 -0.661206 1.389663 -61.130824 -6.254423 21.837089 48.543328 -75.991021 -38.246297 14.003006 -33.384892 -14.214310 22.533301 -2.957796 3.098164 51.049279 -25.466564 11.746503 5.703026 56.480292 19.140186 -5.080541 26.030856 -18.505872 
-286.575531 -267.370117 88.149765 159.256421 2.246562 97.391565 1.393146 -2.567247 8.129243 -11.203040 -14.171329 34.574538 3.105863 14.061234 -28.701885 nan nan nan -10.495174 -3.474383 -51.901049 0.495587 -20.341876 70.660804 0.065167 -6.813065 -7.636580 nan nan nan -1.219473 -8.528963 18.469413 4.897584 -0.850357 11.689814 1.111500 -4.633930 -4.718894 -1.603638 2.760903 -6.520592 3.169262 -1.895326 -14.651140 -24.228142 0.628537 0.725622 -61.753702 -6.806015 22.472399 53.724307 -77.448506 -43.250312 14.213798 -34.751514 -14.229441 22.766796 -4.229319 3.170841 49.584176 -25.137674 12.533169 6.367716 56.901181 19.616748 -3.666295 26.729059 -17.427761 
-284.871887 -264.942688 88.701988 159.547103 2.734984 96.984817 2.572466 -1.883649 11.149704 -10.032780 -15.422638 32.516659 1.897508 12.818288 -25.478576 nan nan nan -10.237752 -3.528137 -51.436917 0.961659 -21.233990 65.943854 0.226817 -5.990698 -6.531481 nan nan nan -0.587202 -9.048658 17.646484 4.996596 -0.748276 12.926021 1.308898 -4.888059 -5.723303 -1.620027 3.572011 -5.290383 2.686454 -2.307403 -15.143568 -24.329798 0.477282 0.787967 -61.490190 -6.206658 22.801387 63.871420 -78.466578 -53.491774 12.959750 -35.491970 -13.353374 21.990662 -3.428084 3.832746 48.027354 -26.161818 14.308676 10.152192 55.776013 22.792990 -1.820593 27.333024 -19.251327 
